<?xml version="1.0" encoding="utf-8"?>
<!-- Generator: Adobe Illustrator 17.0.0, SVG Export Plug-In . SVG Version: 6.00 Build 0)  -->
<!DOCTYPE svg PUBLIC "-//W3C//DTD SVG 1.1//EN" "http://www.w3.org/Graphics/SVG/1.1/DTD/svg11.dtd">
<svg version="1.1" id="learn-cta-arrow_xA0_Image_1_"
	 xmlns="http://www.w3.org/2000/svg" xmlns:xlink="http://www.w3.org/1999/xlink" x="0px" y="0px" width="95.988px"
	 height="31.996px" viewBox="0 0 95.988 31.996" enable-background="new 0 0 95.988 31.996" xml:space="preserve">
<g>
	<path fill="#D0D1D1" d="M70.842,24.656c-0.332-0.092-0.646-0.167-0.973-0.255c0.028,1.968-0.03,7.597-0.03,7.597l1.018-0.651
		C70.877,28.952,70.905,24.674,70.842,24.656z"/>
	<path fill="#D0D1D1" d="M28.043,30.194c-0.029,0.076-0.047,0.134-0.042,0.149C28.011,30.376,28.022,30.321,28.043,30.194z"/>
	<path fill="#D0D1D1" d="M70.842,9.208c0.074,0.001,0-8.276,0-8.276L93.813,16.67L94,16.551L69.839-0.002c0,0,0.074,8.277,0,8.276
		c-38.763-0.497-41.471,19.923-41.796,21.92c0.143-0.371,0.726-1.41,1.934-2.671C32.333,21.121,40.652,8.821,70.842,9.208z"/>
	<path fill="#D0D1D1" d="M29.046,31.128c-0.029,0.076-0.047,0.134-0.042,0.149C29.014,31.31,29.025,31.255,29.046,31.128z"/>
	<path fill="#FFFFFF" d="M70.842,0.932c0,0,0.074,8.277,0,8.276c-30.19-0.387-38.509,11.913-40.865,18.316
		c3.986-4.158,14.856-10.742,39.862-3.801c0.015,0.004,0.024,0.267,0.03,0.679c0.327,0.088,0.641,0.162,0.973,0.255
		c0.062,0.017,0.035,4.296,0.015,6.692L93.813,16.67L70.842,0.932z"/>
</g>
</svg>
